<svg xmlns="http://www.w3.org/2000/svg" viewBox="0 0 800 500">
  <rect width="100%" height="100%" fill="#f7f7f8"/>
  <g fill="#0b0b0b" opacity="0.95">
    <path d="M120 360c60-80 120-120 220-110 100 10 180 80 240 40 60-40 40-140-30-190-70-50-210-20-320 20-110 40-180 180-110 240z"/>
    <path d="M600 160c-40 30-70 70-100 110-40 50-90 90-160 110-70 20-160 10-230-30-70-40-80-140-20-200 60-60 160-80 260-80s240 30 440 0z"/>
    <circle cx="560" cy="380" r="48"/>
    <ellipse cx="200" cy="120" rx="82" ry="46"/>
  </g>
</svg>
